<?xml version="1.0" standalone="no"?>
<!DOCTYPE svg PUBLIC "-//W3C//DTD SVG 20010904//EN"
 "http://www.w3.org/TR/2001/REC-SVG-20010904/DTD/svg10.dtd">
<svg version="1.0" xmlns="http://www.w3.org/2000/svg"
 width="512.000000pt" height="512.000000pt" viewBox="0 0 512.000000 512.000000"
 preserveAspectRatio="xMidYMid meet">
<metadata>
Created by potrace 1.14, written by Peter Selinger 2001-2017
</metadata>
<g transform="translate(0.000000,512.000000) scale(0.100000,-0.100000)"
fill="#000000" stroke="none">
<path d="M1470 4823 c-8 -3 -58 -40 -110 -82 -52 -42 -127 -96 -165 -120 -39
-24 -94 -59 -123 -78 -53 -34 -112 -110 -112 -144 0 -10 11 -30 24 -46 13 -15
46 -73 74 -128 28 -55 65 -123 82 -152 l31 -52 -210 -106 c-116 -58 -274 -139
-351 -180 l-140 -75 -40 16 c-61 25 -142 15 -179 -20 -16 -16 -32 -39 -35 -52
-13 -52 533 -1526 960 -2590 194 -486 202 -504 240 -528 51 -34 83 -24 247 72
214 127 454 262 464 262 4 0 23 -28 42 -63 106 -197 266 -389 361 -435 76 -36
124 -38 214 -8 95 32 171 76 336 193 69 48 224 154 345 235 121 80 310 210
420 288 217 155 955 707 1020 763 61 53 56 72 -59 272 -209 365 -378 733 -608
1324 -278 716 -339 915 -374 1216 -9 77 -20 150 -25 162 -15 38 -50 38 -156
-2 -181 -68 -596 -215 -608 -215 -7 0 -31 52 -54 117 -23 64 -49 122 -59 129
-9 7 -30 14 -47 14 -18 0 -214 -86 -510 -224 -264 -124 -486 -226 -492 -228
-6 -2 -75 94 -152 212 -158 242 -191 275 -251 253z m2214 -265 c15 -176 85
-469 176 -733 74 -212 331 -884 407 -1064 128 -300 266 -577 400 -799 25 -40
43 -77 41 -82 -5 -14 -208 -174 -393 -309 -444 -324 -1382 -916 -1558 -983
-106 -40 -175 -11 -278 119 -65 81 -149 205 -149 220 0 4 116 70 258 145 141
75 399 212 572 304 173 92 421 222 551 288 319 165 399 225 435 325 34 95 13
185 -116 496 -108 261 -278 609 -500 1020 -249 460 -474 924 -458 941 3 3 66
23 139 44 74 21 204 63 289 93 85 30 160 55 166 56 7 1 14 -31 18 -81z m-780
-184 c120 -305 217 -507 506 -1049 164 -307 316 -613 393 -792 74 -169 147
-376 147 -414 0 -36 -33 -83 -82 -116 -125 -86 -585 -334 -1278 -688 -437
-224 -726 -377 -934 -497 -66 -37 -123 -68 -127 -68 -22 0 -588 1456 -925
2380 l-144 394 27 27 c16 14 93 52 173 84 80 32 244 101 364 152 120 51 220
92 221 91 1 -2 22 -39 46 -82 119 -213 200 -230 459 -98 69 35 143 76 164 91
110 74 130 156 74 306 -18 50 -33 94 -33 98 0 4 194 97 430 206 359 165 431
195 437 182 4 -9 41 -102 82 -207z m-1329 61 c44 -69 117 -182 163 -252 45
-69 85 -137 88 -150 21 -80 -78 -174 -230 -218 -47 -14 -63 -15 -87 -5 -38 16
-78 63 -130 152 -34 59 -177 274 -238 359 -11 16 -11 19 0 23 98 29 213 96
299 174 25 23 47 41 50 42 3 0 41 -56 85 -125z"/>
<path d="M2564 3460 c-315 -112 -672 -315 -1194 -678 -208 -145 -250 -179
-250 -201 0 -22 30 -51 53 -51 9 0 63 29 119 63 147 91 268 160 658 374 507
280 704 399 713 434 8 29 -8 65 -31 71 -11 3 -42 -2 -68 -12z"/>
<path d="M2971 3190 c-73 -27 -249 -112 -346 -167 -72 -42 -505 -307 -710
-436 -203 -127 -564 -371 -570 -385 -9 -23 22 -62 50 -62 13 0 104 47 202 103
425 248 732 422 918 522 261 141 341 186 450 258 112 74 135 95 135 122 0 56
-50 73 -129 45z"/>
<path d="M2995 2799 c-154 -44 -318 -143 -1015 -611 -203 -137 -478 -338 -531
-388 -21 -20 -39 -44 -39 -53 0 -24 36 -57 63 -57 13 0 138 70 277 156 519
318 689 419 880 521 327 176 543 333 543 396 0 61 -51 72 -178 36z"/>
<path d="M2342 2000 c-96 -53 -140 -83 -286 -200 -166 -132 -258 -199 -343
-249 -72 -43 -86 -64 -61 -89 19 -19 49 -14 123 22 77 37 419 258 530 341 81
62 175 150 175 165 0 14 -38 50 -52 50 -7 0 -46 -18 -86 -40z"/>
</g>
</svg>
